<svg width="240" height="240" viewBox="0 0 240 240" fill="none" xmlns="http://www.w3.org/2000/svg">
<g clip-path="url(#clip0_2291_121)">
<rect width="138.579" height="138.579" rx="14.4353" transform="matrix(0.868892 -0.495002 0.868892 0.495002 0 154.886)" fill="url(#paint0_linear_2291_121)"/>
<rect width="138.579" height="138.579" rx="14.4353" transform="matrix(0.868892 -0.495002 0.868892 0.495002 0 120.241)" fill="white"/>
<rect width="138.579" height="138.579" rx="14.4353" transform="matrix(0.868892 -0.495002 0.868892 0.495002 0 120.241)" fill="url(#paint1_linear_2291_121)" fill-opacity="0.4"/>
<rect width="138.579" height="138.579" rx="15.5641" transform="matrix(0.868892 -0.495002 0.868892 0.495002 0 85.5969)" fill="url(#paint2_linear_2291_121)"/>
<path d="M134.111 53.4463L177.023 77.8927C184.491 82.1476 184.491 89.0462 177.023 93.3012L134.111 117.748" stroke="#ECF4FF" stroke-width="8.66115" stroke-linecap="round"/>
<path d="M106.709 53.4463L65.3256 77.0223C57.0131 81.758 57.0131 89.4359 65.3256 94.1715L106.709 117.748" stroke="#ECF4FF" stroke-width="8.66115" stroke-linecap="round"/>
</g>
<defs>
<linearGradient id="paint0_linear_2291_121" x1="138.568" y1="0.0104199" x2="4.31469" y2="-0.00438065" gradientUnits="userSpaceOnUse">
<stop stop-color="#73ABFF"/>
<stop offset="1" stop-color="#3183FF"/>
</linearGradient>
<linearGradient id="paint1_linear_2291_121" x1="138.568" y1="0.0104199" x2="4.31469" y2="-0.00438065" gradientUnits="userSpaceOnUse">
<stop stop-color="#73ABFF"/>
<stop offset="1" stop-color="#3183FF"/>
</linearGradient>
<linearGradient id="paint2_linear_2291_121" x1="130.977" y1="7.6015" x2="4.31389" y2="7.5875" gradientUnits="userSpaceOnUse">
<stop stop-color="#73ABFF"/>
<stop offset="1" stop-color="#3183FF"/>
</linearGradient>
<clipPath id="clip0_2291_121">
<rect width="240" height="240" fill="white"/>
</clipPath>
</defs>
</svg>
